<svg xmlns="http://www.w3.org/2000/svg" version="1.1" xmlns:xlink="http://www.w3.org/1999/xlink" xmlns:svgjs="http://svgjs.dev/svgjs" width="1500" height="439" viewBox="0 0 1500 439"><g transform="matrix(1,0,0,1,5.768640602716459,2.2815518368926746)"><svg viewBox="0 0 396 116" data-background-color="#ffffff" preserveAspectRatio="xMidYMid meet" height="439" width="1500" xmlns="http://www.w3.org/2000/svg" xmlns:xlink="http://www.w3.org/1999/xlink"><g id="tight-bounds" transform="matrix(1,0,0,1,0.2400000000000091,-0.05861110869406616)"><svg viewBox="0 0 395.52 116.11722221738815" height="116.11722221738815" width="395.52"><g><svg viewBox="0 0 611.7358200247423 179.59411446235126" height="116.11722221738815" width="395.52"><g><rect width="9.299649729752248" height="179.59411446235126" x="182.57153749459158" y="0" fill="#034620" opacity="1" stroke-width="0" stroke="transparent" fill-opacity="1" class="rect-yte-0" data-fill-palette-color="primary" rx="1%" id="yte-0" data-palette-color="#034620"></rect></g><g transform="matrix(1,0,0,1,216.21582002474238,14.966176205195936)"><svg viewBox="0 0 395.52 149.66176205195939" height="149.66176205195939" width="395.52"><g id="textblocktransform"><svg viewBox="0 0 395.52 149.66176205195939" height="149.66176205195939" width="395.52" id="textblock"><g><svg viewBox="0 0 395.52 103.12201494602822" height="103.12201494602822" width="395.52"><g transform="matrix(1,0,0,1,0,0)"><svg width="395.52" viewBox="1.5 -36.95 180.64 47.1" height="103.12201494602822" data-palette-color="#034620"><path d="M6.6 0.2L6.6 0.2Q4.75 0.2 3.23-1.3 1.7-2.8 1.7-6.05L1.7-6.05Q1.7-9.3 2.33-12.33 2.95-15.35 3.78-18.15 4.6-20.95 5.23-23.48 5.85-26 5.85-28.25L5.85-28.25Q5.1-28.55 4.45-28.55L4.45-28.55Q3.55-28.55 2.95-28 2.35-27.45 2-26.5L2-26.5 1.5-26.65Q1.55-30.15 2.53-32.23 3.5-34.3 5.05-35.2 6.6-36.1 8.25-36.1L8.25-36.1Q10.75-36.1 12.73-34.48 14.7-32.85 16.28-30.05 17.85-27.25 19.03-23.73 20.2-20.2 21.05-16.38 21.9-12.55 22.4-8.85L22.4-8.85Q22.7-10.85 23.03-13.75 23.35-16.65 23.6-19.85 23.85-23.05 23.85-25.95L23.85-25.95Q23.85-28.05 23.7-29.78 23.55-31.5 23.2-32.75L23.2-32.75 23.2-33.15Q24.5-34.6 25.83-35.35 27.15-36.1 28.3-36.1L28.3-36.1Q30-36.1 31.13-34.63 32.25-33.15 32.25-30.45L32.25-30.45Q32.25-28.45 31.7-25.58 31.15-22.7 30.4-19.45 29.65-16.2 29.08-13.08 28.5-9.95 28.45-7.45L28.45-7.45Q28.45-6.75 28.55-5.95 28.65-5.15 29.6-5.15L29.6-5.15Q29.65-4.95 29.65-4.85 29.65-4.75 29.65-4.65L29.65-4.65Q29.6-2.75 28.1-1.28 26.6 0.2 24.1 0.2L24.1 0.2Q22.15 0.2 20.8-0.8 19.45-1.8 18.55-3.48 17.65-5.15 17.03-7.28 16.4-9.4 15.85-11.65L15.85-11.65Q14.85-15.55 13.78-19.07 12.7-22.6 10.9-25.55L10.9-25.55Q11-23.55 10.75-21.18 10.5-18.8 10.23-16.38 9.95-13.95 9.95-11.7L9.95-11.7Q9.95-9.7 10.3-8.03 10.65-6.35 11.55-5.05L11.55-5.05Q11.55-2.6 10-1.2 8.45 0.2 6.6 0.2ZM47 0.35L47 0.35Q43.35 0.35 40.95-1.13 38.55-2.6 37.35-5.03 36.15-7.45 36.15-10.25L36.15-10.25Q36.15-12.9 37.17-15.58 38.2-18.25 40.17-20.45 42.15-22.65 44.97-24 47.8-25.35 51.35-25.35L51.35-25.35Q55.75-25.35 57.77-23.38 59.8-21.4 59.8-18.6L59.8-18.6Q59.8-16.2 58.52-14.18 57.25-12.15 55.15-10.93 53.05-9.7 50.55-9.7L50.55-9.7Q49.25-9.7 47.9-10.1 46.55-10.5 45.25-11.35L45.25-11.35Q45.5-8.25 47.05-6.85 48.6-5.45 50.75-5.45L50.75-5.45Q52.25-5.45 53.75-6.03 55.25-6.6 56.52-7.53 57.8-8.45 58.5-9.5L58.5-9.5 58.85-9.25Q58.85-6.65 57.77-4.83 56.7-3 54.95-1.85 53.2-0.7 51.12-0.18 49.05 0.35 47 0.35ZM48.15-13.15L48.15-13.15Q49.75-13.15 50.75-14.08 51.75-15 52.25-16.25 52.75-17.5 52.75-18.45L52.75-18.45Q52.75-19.6 52.1-20.38 51.45-21.15 50.3-21.15L50.3-21.15Q49.4-21.15 48.32-20.5 47.25-19.85 46.4-18.28 45.55-16.7 45.3-13.9L45.3-13.9Q46.9-13.15 48.15-13.15ZM73.45 0.2L73.45 0.2Q71.9 0.2 70.72-0.6 69.55-1.4 69.59-3L69.59-3Q69.7-5.8 70.02-9.2 70.34-12.6 70.8-16.13 71.25-19.65 71.72-22.9 72.2-26.15 72.59-28.7L72.59-28.7Q71.7-28.8 70.84-28.85 70-28.9 69.3-28.9L69.3-28.9Q67.2-28.9 65.52-28.5 63.84-28.1 62.7-27.1L62.7-27.1Q62.7-30.25 63.22-32.23 63.75-34.2 65.17-35.1 66.59-36 69.34-36L69.34-36Q71.34-36 73.82-35.68 76.3-35.35 78.84-35 81.4-34.65 83.59-34.65L83.59-34.65Q85.4-34.65 86.82-35 88.25-35.35 89-36.25L89-36.25Q90.09-35.9 90.7-34.73 91.3-33.55 91.3-32.15L91.3-32.15Q91.3-30.9 90.75-29.73 90.2-28.55 89-27.78 87.8-27 85.75-27L85.75-27Q84.8-27 83.42-27.18 82.05-27.35 80.5-27.55L80.5-27.55Q79.95-24.55 79.37-20.38 78.8-16.2 78.42-11.4 78.05-6.6 77.95-1.65L77.95-1.65Q77.05-0.7 75.82-0.25 74.59 0.2 73.45 0.2ZM110.04 0.25L110.04 0.25Q108.29 0.25 106.99-0.9 105.69-2.05 105.69-4.65L105.69-4.65Q105.69-4.9 105.69-5.15 105.69-5.4 105.74-5.65L105.74-5.65Q104.24-2.65 102.37-1.23 100.49 0.2 98.59 0.2L98.59 0.2Q96.84 0.2 95.29-1.03 93.74-2.25 92.79-4.65 91.84-7.05 91.84-10.45L91.84-10.45Q91.84-13.95 92.82-16.7 93.79-19.45 95.39-21.35 96.99-23.25 98.89-24.23 100.79-25.2 102.59-25.2L102.59-25.2Q104.59-25.2 106.19-23.98 107.79-22.75 108.39-20.1L108.39-20.1Q108.54-20.95 108.62-21.65 108.69-22.35 108.69-22.6L108.69-22.6Q108.74-23.95 110.07-24.6 111.39-25.25 112.99-25.25L112.99-25.25Q114.39-25.25 115.64-24.7 116.89-24.15 117.34-22.85L117.34-22.85 117.44-22.55Q116.84-21.2 116.24-19.3 115.64-17.4 115.14-15.33 114.64-13.25 114.34-11.28 114.04-9.3 114.04-7.8L114.04-7.8Q114.04-6.15 114.39-5.53 114.74-4.9 115.24-4.9L115.24-4.9Q116.09-4.9 116.79-6.1L116.79-6.1 117.19-5.9Q117.19-4.2 116.09-2.8 114.99-1.4 113.34-0.58 111.69 0.25 110.04 0.25ZM101.89-6.1L101.89-6.1Q103.19-6.1 104.77-8.43 106.34-10.75 107.49-15.1L107.49-15.1Q107.59-15.55 107.69-15.98 107.79-16.4 107.84-16.8L107.84-16.8Q107.04-18.65 106.17-19.43 105.29-20.2 104.44-20.2L104.44-20.2Q103.19-20.2 102.12-18.88 101.04-17.55 100.37-15.55 99.69-13.55 99.69-11.55L99.69-11.55Q99.69-8.8 100.32-7.45 100.94-6.1 101.89-6.1ZM125.89 0.2L125.89 0.2Q124.09 0.2 122.69-1.28 121.29-2.75 121.29-5.45L121.29-5.45Q121.29-6.75 121.59-8.4 121.89-10.05 122.29-11.78 122.69-13.5 122.99-15.03 123.29-16.55 123.29-17.55L123.29-17.55Q123.29-18.6 122.92-19.23 122.54-19.85 121.94-19.85L121.94-19.85Q120.99-19.85 119.99-18.55L119.99-18.55 119.69-18.75Q119.64-19.55 120.04-20.65 120.44-21.75 121.29-22.78 122.14-23.8 123.47-24.5 124.79-25.2 126.59-25.2L126.59-25.2Q129.24-25.2 130.44-23.68 131.64-22.15 131.64-20L131.64-20Q131.64-19.65 131.62-19.28 131.59-18.9 131.54-18.55L131.54-18.55Q133.34-21.8 135.31-23.53 137.29-25.25 138.99-25.25L138.99-25.25Q140.59-25.25 141.34-24 142.09-22.75 142.09-21L142.09-21Q142.09-19.4 141.47-17.75 140.84-16.1 139.62-15.03 138.39-13.95 136.64-14L136.64-14 136.44-14.1Q136.39-15.4 135.59-16.15 134.79-16.9 133.79-16.9L133.79-16.9Q132.44-16.9 131.27-15.55 130.09-14.2 130.09-11.65L130.09-11.65Q130.09-10.1 130.44-8.3 130.79-6.5 130.79-5.25L130.79-5.25Q130.79-3.75 130.09-2.5 129.39-1.25 128.29-0.53 127.19 0.2 125.89 0.2ZM152.99-26.75L152.99-26.75Q150.99-26.75 149.71-27.98 148.44-29.2 148.44-31.05L148.44-31.05Q148.44-33.05 149.94-34.5 151.44-35.95 153.59-35.95L153.59-35.95Q155.59-35.95 156.86-34.7 158.14-33.45 158.14-31.6L158.14-31.6Q158.14-29.6 156.64-28.18 155.14-26.75 152.99-26.75ZM149.49 0.2L149.49 0.2Q147.54 0.2 145.99-1.18 144.44-2.55 144.44-5.6L144.44-5.6Q144.44-7.35 144.91-8.88 145.39-10.4 146.01-11.85 146.64-13.3 147.11-14.68 147.59-16.05 147.59-17.4L147.59-17.4Q147.59-18.6 147.19-19.13 146.79-19.65 146.24-19.65L146.24-19.65Q145.39-19.65 144.59-18.55L144.59-18.55 144.24-18.75Q144.44-20.75 145.51-22.18 146.59-23.6 148.16-24.4 149.74-25.2 151.29-25.2L151.29-25.2Q153.19-25.2 154.59-23.98 155.99-22.75 155.99-20L155.99-20Q155.99-18.35 155.51-16.53 155.04-14.7 154.41-12.9 153.79-11.1 153.31-9.55 152.84-8 152.84-6.9L152.84-6.9Q152.84-5.95 153.21-5.55 153.59-5.15 154.04-5.15L154.04-5.15Q154.49-5.15 154.91-5.43 155.34-5.7 155.54-6.05L155.54-6.05 155.89-5.95Q155.89-4.1 154.91-2.73 153.94-1.35 152.49-0.58 151.04 0.2 149.49 0.2ZM165.09 10.15L165.09 10.15Q163.64 10.15 162.34 9.63 161.03 9.1 160.53 8.05L160.53 8.05Q161.74 2.95 162.51-1 163.28-4.95 163.74-8.05 164.19-11.15 164.39-13.73 164.59-16.3 164.64-18.7L164.64-18.7Q162.94-18.6 161.39-18.38 159.84-18.15 158.69-17.75L158.69-17.75 158.59-18.1Q160.03-19.55 161.59-20.53 163.14-21.5 164.69-22.1L164.69-22.1 164.69-25.9Q164.69-29.75 166.24-32.18 167.78-34.6 170.21-35.77 172.64-36.95 175.24-36.95L175.24-36.95Q178.69-36.95 180.41-35.3 182.14-33.65 182.14-31.6L182.14-31.6Q182.14-30.1 181.21-28.7 180.29-27.3 178.44-26.38 176.59-25.45 173.78-25.45L173.78-25.45Q174.59-26.9 175.01-28.35 175.44-29.8 175.44-30.9L175.44-30.9Q175.44-31.75 175.19-32.27 174.94-32.8 174.49-32.8L174.49-32.8Q173.53-32.8 172.66-30.43 171.78-28.05 171.78-24.2L171.78-24.2 171.78-23.25Q173.24-23.3 174.56-23.2 175.89-23.1 177.03-23L177.03-23Q177.14-22.65 177.19-22.25 177.24-21.85 177.24-21.45L177.24-21.45Q177.24-20.7 177.03-19.95 176.84-19.2 176.49-18.4L176.49-18.4Q175.59-18.5 174.44-18.6 173.28-18.7 171.99-18.75L171.99-18.75 171.99-17.65Q171.99-14.9 171.76-11.3 171.53-7.7 170.94-2.75 170.34 2.2 169.09 9.05L169.09 9.05Q167.53 10.15 165.09 10.15Z" opacity="1" transform="matrix(1,0,0,1,0,0)" fill="#034620" class="wordmark-text-0" data-fill-palette-color="primary" id="text-0"></path></svg></g></svg></g><g transform="matrix(1,0,0,1,0,127.46664774642677)"><svg viewBox="0 0 232.209792 22.19511430553262" height="22.19511430553262" width="232.209792"><g transform="matrix(1,0,0,1,0,0)"><svg width="232.209792" viewBox="1.3 -45.6 484.36 46.300000000000004" height="22.19511430553262" data-palette-color="#034620"><path d="M4.95 0L1.3 0 14.75-35 17.85-35 31.3 0 27.65 0 21.45-16.4 10.1-16.4 4.95 0ZM15.4-32.4L15.1-32.4 10.45-17.6 21-17.6 15.4-32.4ZM39.4 0L39.4-35 46.1-35Q51.4-35 54.32-32.77 57.25-30.55 57.25-26.55L57.25-26.55Q57.25-23.45 55.42-21.4 53.6-19.35 50.15-18.65L50.15-18.65 50.15-18.35Q53.45-17.7 55.55-15.25 57.65-12.8 58.7-9.2L58.7-9.2Q59.65-5.9 60.57-4.08 61.5-2.25 62.62-1.45 63.75-0.65 65.3-0.3L65.3-0.3 65.3 0 63.25 0Q61.05 0 59.62-0.8 58.2-1.6 57.2-3.5 56.2-5.4 55.3-8.75L55.3-8.75Q53.85-13.9 51.45-16.05 49.05-18.2 45.6-18.2L45.6-18.2 45.3-18.2 45.3-19.1 45.6-19.1Q53.65-19.1 53.65-26.5L53.65-26.5Q53.65-33.8 46.1-33.8L46.1-33.8 42.8-33.8 42.8 0 39.4 0ZM71.45 0L67.8 0 81.25-35 84.34-35 97.8 0 94.15 0 87.95-16.4 76.59-16.4 71.45 0ZM81.9-32.4L81.59-32.4 76.95-17.6 87.5-17.6 81.9-32.4ZM116.89 0L105.89 0 105.89-35 116.89-35Q122.69-35 126.99-32.8 131.29-30.6 133.69-26.68 136.09-22.75 136.09-17.5L136.09-17.5Q136.09-12.25 133.69-8.33 131.29-4.4 126.99-2.2 122.69 0 116.89 0L116.89 0ZM116.89-33.8L116.89-33.8 109.29-33.8 109.29-1.2 116.89-1.2Q124.14-1.2 128.22-5.5 132.29-9.8 132.29-17.5L132.29-17.5Q132.29-25.2 128.22-29.5 124.14-33.8 116.89-33.8ZM149.99 0L146.59 0 146.59-35 149.99-35 149.99 0ZM189.69-16.6L180.44-16.6 180.44-17.8 193.09-17.8 193.09-4.2Q190.79-1.9 187.46-0.6 184.14 0.7 180.04 0.7L180.04 0.7Q175.84 0.7 172.29-0.68 168.74-2.05 166.09-4.53 163.44-7 161.96-10.3 160.49-13.6 160.49-17.5L160.49-17.5Q160.49-21.4 161.96-24.7 163.44-28 166.09-30.48 168.74-32.95 172.29-34.33 175.84-35.7 180.04-35.7L180.04-35.7Q181.84-35.7 183.96-35.45 186.09-35.2 188.04-34.77 189.99-34.35 191.34-33.75L191.34-33.75 191.09-30.95 190.79-30.95Q188.79-32.7 185.99-33.6 183.19-34.5 180.04-34.5L180.04-34.5Q175.34-34.5 171.79-32.38 168.24-30.25 166.26-26.43 164.29-22.6 164.29-17.5L164.29-17.5Q164.29-12.4 166.26-8.58 168.24-4.75 171.79-2.63 175.34-0.5 180.04-0.5L180.04-0.5Q182.94-0.5 185.41-1.3 187.89-2.1 189.69-3.6L189.69-3.6 189.69-16.6ZM179.99-38.85L179.99-38.85Q177.59-38.85 175.91-40.55 174.24-42.25 173.54-45.3L173.54-45.3 174.39-45.6Q175.64-43.45 176.89-42.6 178.14-41.75 179.99-41.75L179.99-41.75Q181.89-41.75 183.11-42.6 184.34-43.45 185.59-45.6L185.59-45.6 186.44-45.3Q185.79-42.25 184.09-40.55 182.39-38.85 179.99-38.85ZM207.99 0L204.59 0 204.59-35 207.99-35 207.99 0ZM223.63 0L220.23 0 221.48-35.7 222.08-35.7 247.23-5.3 247.53-5.3 246.43-35 249.83-35 248.58 0.7 247.98 0.7 222.83-29.7 222.53-29.7 223.63 0ZM286.98 0L283.58 0 283.58-34Q282.83-34 280.48-33.7L280.48-33.7 270.68-32.45 270.68-35 299.88-35 299.88-32.45 290.08-33.7Q287.73-34 286.98-34L286.98-34 286.98 0ZM303.43 0L299.78 0 313.23-35 316.33-35 329.78 0 326.13 0 319.93-16.4 308.58-16.4 303.43 0ZM313.88-32.4L313.58-32.4 308.93-17.6 319.48-17.6 313.88-32.4ZM337.87 0L337.87-35 344.57-35Q349.87-35 352.8-32.77 355.72-30.55 355.72-26.55L355.72-26.55Q355.72-23.45 353.9-21.4 352.07-19.35 348.62-18.65L348.62-18.65 348.62-18.35Q351.92-17.7 354.02-15.25 356.12-12.8 357.17-9.2L357.17-9.2Q358.12-5.9 359.05-4.08 359.97-2.25 361.1-1.45 362.22-0.65 363.77-0.3L363.77-0.3 363.77 0 361.72 0Q359.52 0 358.1-0.8 356.67-1.6 355.67-3.5 354.67-5.4 353.77-8.75L353.77-8.75Q352.32-13.9 349.92-16.05 347.52-18.2 344.07-18.2L344.07-18.2 343.77-18.2 343.77-19.1 344.07-19.1Q352.12-19.1 352.12-26.5L352.12-26.5Q352.12-33.8 344.57-33.8L344.57-33.8 341.27-33.8 341.27 0 337.87 0ZM373.37 0L369.97 0 369.97-35 373.37-35 373.37 0ZM389.77 0L386.37 0 386.37-35 401.07-35 401.07-32.55 392.77-33.7Q390.52-34 389.77-34L389.77-34 389.77-18.35Q390.57-18.35 392.87-18.5L392.87-18.5 400.52-19 400.52-16.7 392.87-17.2Q390.57-17.35 389.77-17.35L389.77-17.35 389.77 0ZM410.81 0L410.81-35 414.21-35 414.21-1Q415.17-1 417.21-1.3L417.21-1.3 425.51-2.55 425.51 0 410.81 0ZM449.26 0L433.86 0 433.86-35 449.11-35 449.11-32.55 440.36-33.7Q438.06-34 437.26-34L437.26-34 437.26-18.75Q437.91-18.75 440.36-18.9L440.36-18.9 448.56-19.4 448.56-17.1 440.36-17.6Q437.91-17.75 437.26-17.75L437.26-17.75 437.26-1Q438.16-1 440.41-1.3L440.41-1.3 449.26-2.45 449.26 0ZM459.76 0L459.76-35 466.46-35Q471.76-35 474.69-32.77 477.61-30.55 477.61-26.55L477.61-26.55Q477.61-23.45 475.78-21.4 473.96-19.35 470.51-18.65L470.51-18.65 470.51-18.35Q473.81-17.7 475.91-15.25 478.01-12.8 479.06-9.2L479.06-9.2Q480.01-5.9 480.94-4.08 481.86-2.25 482.99-1.45 484.11-0.65 485.66-0.3L485.66-0.3 485.66 0 483.61 0Q481.41 0 479.99-0.8 478.56-1.6 477.56-3.5 476.56-5.4 475.66-8.75L475.66-8.75Q474.21-13.9 471.81-16.05 469.41-18.2 465.96-18.2L465.96-18.2 465.66-18.2 465.66-19.1 465.96-19.1Q474.01-19.1 474.01-26.5L474.01-26.5Q474.01-33.8 466.46-33.8L466.46-33.8 463.16-33.8 463.16 0 459.76 0Z" opacity="1" transform="matrix(1,0,0,1,0,0)" fill="#034620" class="slogan-text-1" data-fill-palette-color="secondary" id="text-1"></path></svg></g></svg></g></svg></g></svg></g><g transform="matrix(1,0,0,1,0,1.8932212899572818)"><svg viewBox="0 0 158.22690469419302 175.8076718824367" height="175.8076718824367" width="158.22690469419302"><g><svg xmlns="http://www.w3.org/2000/svg" viewBox="12 8 72 80" x="0" y="0" height="175.8076718824367" width="158.22690469419302" class="icon-icon-0" data-fill-palette-color="accent" id="icon-0"><g fill="#f2dfcf" data-fill-palette-color="accent"><path d="M82 8H18A6.007 6.007 0 0 0 12 14V82A6.007 6.007 0 0 0 18 88H82A2 2 0 0 0 84 86V10A2 2 0 0 0 82 8M16 82V14A2.003 2.003 0 0 1 18 12H20V84H18A2.003 2.003 0 0 1 16 82M80 84H24V12H80Z" fill="#f2dfcf" data-fill-palette-color="accent"></path><path d="M60 47.798V70A2 2 0 0 0 64 70V47.798A10.015 10.015 0 0 0 72 38V28A2 2 0 0 0 68 28V38A5.99 5.99 0 0 1 64 43.632V28A2 2 0 0 0 60 28V43.632A5.99 5.99 0 0 1 56 38V28A2 2 0 0 0 52 28V38A10.015 10.015 0 0 0 60 47.798" fill="#f2dfcf" data-fill-palette-color="accent"></path><path d="M38 47.704V70A2 2 0 0 0 42 70V47.704C45.086 46.881 48 44.066 48 38 48 32.277 45.152 24 40 24S32 32.277 32 38C32 44.066 34.914 46.881 38 47.704M40 28C41.352 28 44 32.527 44 38 44 40.24 43.48 44 40 44S36 40.24 36 38C36 32.527 38.648 28 40 28" fill="#f2dfcf" data-fill-palette-color="accent"></path></g></svg></g></svg></g></svg></g><defs></defs></svg><rect width="395.52" height="116.11722221738815" fill="none" stroke="none" visibility="hidden"></rect></g></svg></g></svg>